<svg xmlns="http://www.w3.org/2000/svg" viewBox="0 0 1185.16 270.87"><g id="圖層_2" data-name="圖層 2"><g id="圖層_1-2" data-name="圖層 1"><path d="M0,205.48V11.05H54.35q24.23,0,39,12.17T108.2,55.48q0,16.32-8.73,28.62T74.81,101.8v.5q19.45,1.88,31.32,14.56T118,149.75q0,24.72-17.76,40.22T55.35,205.48ZM21.34,30.88V94.77h23.6q19.32,0,30.12-9.23t10.8-25.79q0-28.87-37.66-28.87Zm0,83.59v71.17h31.5q20.09,0,31.45-9.6t11.36-26.55q0-35-47.95-35Z"/><path d="M158.16,76.57Q178.61,63.39,205,63.39q48.33,0,48.33,51.34v90.75h-21V183.64h-.76q-14.43,25.1-42.67,25.1-20.59,0-32.45-11T144.6,168.7q0-38.53,45.69-45.06l41.92-6q0-36.15-28.87-36.15-25.23,0-45.18,17.2Zm40,63q-17.83,2.38-24.79,8.6t-7,19.14a21.43,21.43,0,0,0,7.47,16.94q7.47,6.54,19.52,6.53,16.68,0,27.74-11.92t11-29.75V135.06Z"/><path d="M389.61,199q-16.19,9.8-37.65,9.79-29.5,0-47.64-19.27t-18.13-50.14q0-34.52,19.58-55.23t52.09-20.71q17.94,0,32,6.78v22Q374.3,81.21,356.6,81.21q-21.33,0-35.21,15.38t-13.87,40.85q0,24.85,12.93,39.17t34.77,14.31q18.45,0,34.39-12.18Z"/><path d="M537.23,205.48H507.48L445.09,139h-.62v66.53h-21V0h21V130.29h.62l59.25-63.64h27.74L466.81,133.8Z"/><path d="M551.66,177.23q18.2,13.44,39.92,13.44,29.61,0,29.62-20a18,18,0,0,0-6.46-14.31q-6.48-5.52-25.42-12.68-22.61-8.91-30-18t-7.41-22.47q0-17.82,15.25-28.87t37.47-11q17.82,0,31.88,6.27V91.5q-15.32-10-35.27-10-12.3,0-20,5.53t-7.72,14.56q0,9,5.34,13.8t24,12.43q23.73,9,31.82,18.26t8.1,22.66q0,18.57-15.25,29.31t-39.1,10.73q-21.47,0-36.78-8.41Z"/><path d="M740.69,204.1q-7.65,4.38-20.2,4.39-35.78,0-35.78-40.29V84.73h-24.1V66.65h24.1V32.51l20.84-6.78V66.65h35.14V84.73H705.55v79.7q0,14.19,4.77,20.21t15.94,6q8.65,0,14.43-4.65Z"/><path d="M774.08,76.57q20.46-13.18,46.82-13.18,48.33,0,48.33,51.34v90.75h-21V183.64h-.75q-14.43,25.1-42.68,25.1-20.58,0-32.44-11T760.53,168.7q0-38.53,45.69-45.06l41.92-6q0-36.15-28.87-36.15-25.23,0-45.19,17.2Zm40,63q-17.82,2.38-24.79,8.6t-7,19.14a21.45,21.45,0,0,0,7.46,16.94q7.47,6.54,19.52,6.53,16.7,0,27.74-11.92t11-29.75V135.06Z"/><path d="M1028.89,194.56q0,76.31-72.3,76.31-25.61,0-45.06-9.91V239.62q23.46,13,44.93,13,51.6,0,51.59-55.35V181.88h-.5q-16.32,26.87-47.95,26.86-26.1,0-41.8-18.7t-15.69-49.46q0-35.52,17.2-56.36t46.32-20.83q28.23,0,41.92,22.72h.5V66.65h20.84Zm-20.84-72.68a39.55,39.55,0,0,0-11.67-28.81,38.06,38.06,0,0,0-28.12-11.86q-20.84,0-32.82,15.31t-12,42.56q0,23.6,11.55,37.72t30,14.12q18.71,0,30.88-13.5T1008.05,143Z"/><path d="M1185.16,141.21h-98.41q.63,24,12.68,36.78t33,12.8q23.47,0,43.31-15.69v20.08q-18.21,13.56-48.2,13.56-29,0-45.75-19T1065,136.44q0-31.64,18.14-52.34t45.37-20.71q26.75,0,41.67,17.57t14.94,49Zm-21.59-18.45q-.12-19.59-9.41-30.44t-26-10.86q-15.18,0-26.67,10.92T1087,122.76Z"/></g></g></svg>